# xmcd
#
# Track frame offsets: 
#        150
#        12121
#        33695
#        58867
#        81898
#        102259
#        129490
#        158286
#        177045
#        192105
#        209093
#
# Disc length: 3196 seconds
#
# Revision: 1
# Processed by: cddbd v1.5.2PL0 Copyright (c) Steve Scherf et al.
# Submitted via: ExactAudioCopy v0.95b4
#
DISCID=8b0c7a0b
DTITLE=Overcast - Expectational Dilution (2007)
DYEAR=1994
DGENRE=
TTITLE0=Grifter
TTITLE1=Two Degrees Below
TTITLE2=Absolute Threshold
TTITLE3=As A Whole
TTITLE4=Allegiance To The Flesh
TTITLE5=Iconoclasm
TTITLE6=Bleed Into One
TTITLE7=Diluting Inertia
TTITLE8=Faceless (7" Version)
TTITLE9=Staredown (7" Version)
TTITLE10=Follow (7" Version)
EXTD=
EXTT0=
EXTT1=
EXTT2=
EXTT3=
EXTT4=
EXTT5=
EXTT6=
EXTT7=
EXTT8=
EXTT9=
EXTT10=
PLAYORDER=
